<?xml version="1.0" encoding="utf-8"?>
<!-- Generator: Adobe Illustrator 26.0.1, SVG Export Plug-In . SVG Version: 6.00 Build 0)  -->
<svg version="1.1" id="Layer_1" xmlns="http://www.w3.org/2000/svg" xmlns:xlink="http://www.w3.org/1999/xlink" x="0px" y="0px"
	 viewBox="0 0 352.3 169.2" style="enable-background:new 0 0 352.3 169.2;" xml:space="preserve">
<style type="text/css">
	.st0{fill:#E8EDDC;}
	.st1{fill:#748553;}
</style>
<path class="st0" d="M267.7,0c-46.7,0-84.6,37.9-84.6,84.6s37.9,84.6,84.6,84.6s84.6-37.9,84.6-84.6S314.4,0,267.7,0z M302.7,144.3
	c10.6-10.5,3.6-14,16.9-14.6C322.8,135.2,305.7,148.7,302.7,144.3z M339,95.2c-1.9,2-5.1,1.8-7.8,1.4c-3.3-0.5-6.6-1-9.6-2.2
	c-3-1.3-5.8-3.5-7.2-6.5c-2.5-6.3,0.9-15.3-8-16.6c-31.6,0.2,31.3,28.3-2.3,37.8c-3.7,1.1-2.4,6.5-2.5,7.8
	c-1.2,13.5-22.8,42-35.6,38.6c-4.9-1.3-8.5-7.4-9.3-12.2c-1.2-7.9,5.5-12,4.3-22.4c-0.3-3-0.7-5.7-2.5-8.1
	c-6.6-8.5-22.3,0.2-31.9-6.5c-4-2.8-7.7-8.8-7.5-22.5c0.1-3.3,0.9-6.5,2.6-9.4c2.6-4.4,6.9-9.9,13.8-13.4c7.7-4,15-3.6,23-3.3
	c9.9,0.4,17.8,2.9,22.8,4.7c42.9-5.7,5.8-32.2-1.6-23.2c-11.9,9.6-19.2-12.5-29.6,7c-16.3,10.3-6.1-21.4-14.3-31.1
	c9.2-4,19.4-6.2,30-6.2c41.7,0,75.5,33.8,75.5,75.5c0,2.2-0.1,4.4-0.3,6.5C340.5,92.4,340,94,339,95.2z"/>
<path class="st1" d="M341.4,84.5c0,2.2-0.1,4.4-0.3,6.5c-0.7,1.4-1.1,3.1-2.2,4.2c-1.9,2-5.1,1.8-7.8,1.4c-3.3-0.5-6.6-1-9.6-2.2
	c-3-1.3-5.8-3.5-7.2-6.5c-2.5-6.3,0.9-15.3-8-16.6c-31.6,0.2,31.3,28.3-2.3,37.8c-3.7,1.1-2.4,6.5-2.5,7.8
	c-1.2,13.5-22.8,42-35.6,38.6c-4.9-1.3-8.5-7.4-9.3-12.2c-1.2-7.9,5.5-12,4.3-22.4c-0.3-3-0.7-5.7-2.5-8.1
	c-6.6-8.5-22.3,0.2-31.9-6.5c-4-2.8-7.7-8.8-7.5-22.5c0.1-3.3,0.9-6.5,2.6-9.4c2.6-4.4,6.9-9.9,13.8-13.4c7.7-4,15-3.6,23-3.3
	c9.9,0.4,17.8,2.9,22.8,4.7c42.9-5.7,5.8-32.2-1.6-23.2c-11.9,9.6-19.2-12.5-29.6,7c-16.3,10.3-6.1-21.4-14.3-31.1
	c9.2-4,19.4-6.2,30-6.2C307.6,8.9,341.4,42.7,341.4,84.5z M302.7,144.3c3,4.4,20.1-9.1,16.9-14.6
	C306.3,130.3,313.3,133.8,302.7,144.3z"/>
<path class="st0" d="M84.6,0C37.9,0,0,37.9,0,84.6s37.9,84.6,84.6,84.6c46.7,0,84.6-37.9,84.6-84.6S131.3,0,84.6,0z M96.9,41
	c12.5,1.4-2.5,5.3,0.7,1.9C97.4,42.6,95.6,41.3,96.9,41z M86.8,37.6c0.9-0.4,1.9-0.6,2.8-0.5c1.8,0.2,2.2,2.7,0.4,3.3
	c-3.6,1.2-7.6,1.8-11.3,2.9c-1,0.3-1.7-1-0.9-1.7C80,39.7,84.3,38.4,86.8,37.6z M106.1,110.2c-1.5,2.3-3.1,4.6-4.7,6.9
	c-7.7,10.7,0.3,37.7-20.5,31.6c-5.6-5.6-7.9-12.9-9.4-20.5c-2.4-12.1-7.5-23.5-14.8-33.5c-3.2-4.4-5.3-9.4-3.7-12.7
	c11.4-28.9,30.9-13.1-27.2-30.4c-3-1-5.6-2.1-7.7-3.4C29.3,27.7,49.7,13,73.7,9.6c-0.2,2.6,0.6,5.2,2.9,7.5c6.8,4.3,10,17.1-0.1,17
	c-1.2,0-2.3-0.2-3.4-0.5c-4.5-1.3-10.5-4-14.6-1.3c-10.6,6.2-5.5,11.9,2.3,16.4c10.2,5.9,22.1,8,33.8,6.4c4.7-0.6,9.3-0.8,14.5,1.5
	c3.1,1.3,5.8,3.4,8.1,5.8C137.5,83.8,116.7,93.3,106.1,110.2z M147.2,61.4l-12.7-18.2c-3.2-4.7-3.1-10.7,0-15.2
	c11.4,10.2,19.8,23.7,23.4,39.1C153.6,67,149.6,64.9,147.2,61.4z"/>
<path class="st1" d="M77.7,41.6c2.3-1.9,6.6-3.2,9.1-4.1c0.9-0.4,1.9-0.6,2.8-0.5c1.8,0.2,2.2,2.7,0.4,3.3
	c-3.6,1.2-7.6,1.8-11.3,2.9C77.7,43.6,76.9,42.3,77.7,41.6z M97.6,42.9c-3.2,3.3,11.8-0.5-0.7-1.9C95.6,41.3,97.4,42.6,97.6,42.9z
	 M109,56.6c-5.2-2.3-9.8-2.1-14.5-1.5c-11.7,1.6-23.6-0.6-33.8-6.4c-7.8-4.5-12.9-10.2-2.3-16.4c4-2.7,10.1,0.1,14.6,1.3
	c1.1,0.3,2.2,0.5,3.4,0.5c10.1,0.1,6.9-12.7,0.1-17c-2.3-2.4-3.1-5-2.9-7.5c-24,3.4-44.4,18-55.6,38.4c2.2,1.3,4.7,2.4,7.7,3.4
	C83.9,68.7,64.4,52.9,53,81.8c-1.6,3.4,0.5,8.3,3.7,12.7c7.3,10,12.4,21.4,14.8,33.5c1.5,7.7,3.8,14.9,9.4,20.5
	c20.8,6.2,12.8-20.8,20.5-31.6c1.6-2.3,3.2-4.5,4.7-6.9c10.6-16.9,31.4-26.4,11-47.8C114.8,60,112.1,58,109,56.6z M134.4,28
	c-3.1,4.5-3.2,10.5,0,15.2l12.7,18.2c2.5,3.5,6.4,5.6,10.6,5.7C154.2,51.7,145.9,38.1,134.4,28z"/>
</svg>
