<svg id="Layer_1" data-name="Layer 1" xmlns="http://www.w3.org/2000/svg" viewBox="0 0 302.31 169.2"><defs><style>.cls-1{fill:#c6d6d6;}.cls-2{fill:#748553;}</style></defs><path class="cls-1" d="M217.71,0a84.6,84.6,0,1,0,84.6,84.6A84.59,84.59,0,0,0,217.71,0Zm35,144.29c10.64-10.53,3.56-14,16.94-14.64C272.84,135.22,255.72,148.72,252.71,144.29ZM289,95.15c-1.88,2-5.1,1.81-7.83,1.43a38.75,38.75,0,0,1-9.61-2.24,13.23,13.23,0,0,1-7.16-6.47c-2.53-6.32.9-15.33-8-16.63-31.6.25,31.28,28.27-2.34,37.78-3.73,1.06-2.36,6.53-2.47,7.81-1.16,13.51-22.83,42-35.64,38.6-4.93-1.33-8.54-7.4-9.25-12.23-1.16-7.91,5.51-12,4.32-22.41-.34-3-.65-5.68-2.52-8.08-6.62-8.5-22.28.19-31.87-6.52-4-2.8-7.69-8.79-7.48-22.49a19.23,19.23,0,0,1,2.62-9.39,34.43,34.43,0,0,1,13.78-13.39c7.7-4,15-3.64,22.95-3.28a73.25,73.25,0,0,1,22.82,4.75c42.93-5.66,5.78-32.22-1.58-23.24-11.93,9.64-19.23-12.54-29.59,7-16.3,10.29-6.07-21.36-14.29-31.06A75.57,75.57,0,0,1,291.4,84.47c0,2.19-.1,4.35-.28,6.49C290.46,92.37,290,94,289,95.15Z" transform="translate(0)"/><path class="cls-2" d="M291.4,84.47c0,2.19-.1,4.35-.28,6.49-.66,1.41-1.1,3.07-2.15,4.19-1.88,2-5.1,1.81-7.83,1.43a38.75,38.75,0,0,1-9.61-2.24,13.23,13.23,0,0,1-7.16-6.47c-2.53-6.32.9-15.33-8-16.63-31.6.25,31.28,28.27-2.34,37.78-3.73,1.06-2.36,6.53-2.47,7.81-1.16,13.51-22.83,42-35.64,38.6-4.93-1.33-8.54-7.4-9.25-12.23-1.16-7.91,5.51-12,4.32-22.41-.34-3-.65-5.68-2.52-8.08-6.62-8.5-22.28.19-31.87-6.52-4-2.8-7.69-8.79-7.48-22.49a19.23,19.23,0,0,1,2.62-9.39,34.43,34.43,0,0,1,13.78-13.39c7.7-4,15-3.64,22.95-3.28a73.25,73.25,0,0,1,22.82,4.75c42.93-5.66,5.78-32.22-1.58-23.24-11.93,9.64-19.23-12.54-29.59,7-16.3,10.29-6.07-21.36-14.29-31.06A75.57,75.57,0,0,1,291.4,84.47Zm-38.69,59.82c3,4.43,20.13-9.07,16.94-14.64C256.27,130.28,263.35,133.76,252.71,144.29Z" transform="translate(0)"/><path class="cls-1" d="M84.6,0a84.6,84.6,0,1,0,84.6,84.6A84.59,84.59,0,0,0,84.6,0ZM96.92,41c12.52,1.41-2.49,5.28.71,1.94C97.38,42.64,95.62,41.33,96.92,41ZM86.81,37.55a5.38,5.38,0,0,1,2.77-.5A1.73,1.73,0,0,1,90,40.4c-3.6,1.25-7.61,1.8-11.33,2.89a1,1,0,0,1-.92-1.65C80,39.71,84.35,38.42,86.81,37.55Zm19.31,72.64c-1.48,2.35-3.09,4.6-4.7,6.85-7.67,10.72.31,37.73-20.5,31.56-5.6-5.59-7.87-12.89-9.4-20.54A85.46,85.46,0,0,0,56.74,94.57c-3.24-4.45-5.3-9.39-3.73-12.75,11.43-28.89,30.86-13.1-27.22-30.4a40.18,40.18,0,0,1-7.74-3.36A75.62,75.62,0,0,1,73.66,9.63a9.67,9.67,0,0,0,2.91,7.55c6.84,4.33,10,17.06-.08,17a13,13,0,0,1-3.4-.52c-4.47-1.27-10.55-4-14.6-1.33C47.88,38.51,53,44.25,60.79,48.75a53.25,53.25,0,0,0,33.75,6.4c4.66-.63,9.33-.78,14.49,1.49a25.35,25.35,0,0,1,8.1,5.78C137.51,83.77,116.71,93.29,106.12,110.19Z" transform="translate(0)"/><path class="cls-2" d="M77.74,41.64c2.27-1.93,6.61-3.22,9.07-4.09a5.38,5.38,0,0,1,2.77-.5A1.73,1.73,0,0,1,90,40.4c-3.6,1.25-7.61,1.8-11.33,2.89A1,1,0,0,1,77.74,41.64Zm19.89,1.28c-3.2,3.34,11.81-.53-.71-1.94C95.62,41.33,97.38,42.64,97.63,42.92ZM109,56.64c-5.16-2.27-9.83-2.12-14.49-1.49a53.25,53.25,0,0,1-33.75-6.4c-7.84-4.5-12.91-10.24-2.3-16.43,4-2.71,10.13.06,14.6,1.33a13,13,0,0,0,3.4.52c10.05.07,6.92-12.66.08-17a9.67,9.67,0,0,1-2.91-7.55A75.62,75.62,0,0,0,18.05,48.06a40.18,40.18,0,0,0,7.74,3.36C83.87,68.72,64.44,52.93,53,81.82c-1.57,3.36.49,8.3,3.73,12.75a85.46,85.46,0,0,1,14.78,33.49c1.53,7.65,3.8,14.95,9.4,20.54,20.81,6.17,12.83-20.84,20.5-31.56,1.61-2.25,3.22-4.5,4.7-6.85,10.59-16.9,31.39-26.42,11-47.77A25.35,25.35,0,0,0,109,56.64Z" transform="translate(0)"/></svg>