<?xml version="1.0" encoding="utf-8"?>
<!-- Generator: Adobe Illustrator 26.0.1, SVG Export Plug-In . SVG Version: 6.00 Build 0)  -->
<svg version="1.1" id="Layer_1" xmlns="http://www.w3.org/2000/svg" xmlns:xlink="http://www.w3.org/1999/xlink" x="0px" y="0px"
	 viewBox="0 0 206.4 115.2" style="enable-background:new 0 0 206.4 115.2;" xml:space="preserve">
<style type="text/css">
	.st0{fill:#748553;}
	.st1{fill:#E8EDDC;}
</style>
<path class="st0" d="M148.8,115.2H57.6C25.9,115.2,0,89.3,0,57.6v0C0,25.9,25.9,0,57.6,0h91.2c31.7,0,57.6,25.9,57.6,57.6v0
	C206.4,89.3,180.5,115.2,148.8,115.2z"/>
<g>
	<path class="st1" d="M149.6,14.7c-23.7,0-42.9,19.2-42.9,42.9s19.2,42.9,42.9,42.9s42.9-19.2,42.9-42.9S173.3,14.7,149.6,14.7z
		 M167.4,87.9c5.4-5.3,1.8-7.1,8.6-7.4C177.6,83.3,168.9,90.1,167.4,87.9z M185.7,63c-1,1-2.6,0.9-4,0.7c-1.7-0.2-3.3-0.5-4.9-1.1
		c-1.5-0.6-3-1.8-3.6-3.3c-1.3-3.2,0.5-7.8-4.1-8.4c-16,0.1,15.9,14.3-1.2,19.2c-1.9,0.5-1.2,3.3-1.2,4
		c-0.6,6.8-11.6,21.3-18.1,19.6c-2.5-0.7-4.3-3.8-4.7-6.2c-0.6-4,2.8-6.1,2.2-11.4c-0.2-1.5-0.3-2.9-1.3-4.1
		c-3.4-4.3-11.3,0.1-16.2-3.3c-2-1.4-3.9-4.5-3.8-11.4c0-1.7,0.5-3.3,1.3-4.8c1.3-2.2,3.5-5,7-6.8c3.9-2,7.6-1.8,11.6-1.7
		c5,0.2,9,1.4,11.6,2.4c21.8-2.9,2.9-16.3-0.8-11.8c-6,4.9-9.8-6.4-15,3.6c-8.3,5.2-3.1-10.8-7.2-15.7c4.7-2,9.8-3.1,15.2-3.1
		c21.2,0,38.3,17.1,38.3,38.3c0,1.1,0,2.2-0.1,3.3C186.5,61.6,186.3,62.4,185.7,63z"/>
	<path class="st1" d="M56.8,14.7c-23.7,0-42.9,19.2-42.9,42.9s19.2,42.9,42.9,42.9c23.7,0,42.9-19.2,42.9-42.9S80.5,14.7,56.8,14.7z
		 M63,35.5c6.3,0.7-1.3,2.7,0.4,1C63.3,36.3,62.4,35.7,63,35.5z M57.9,33.8c0.4-0.2,0.9-0.3,1.4-0.3c0.9,0.1,1.1,1.4,0.2,1.7
		c-1.8,0.6-3.9,0.9-5.7,1.5c-0.5,0.1-0.9-0.5-0.5-0.8C54.4,34.9,56.7,34.2,57.9,33.8z M67.7,70.6c-0.7,1.2-1.6,2.3-2.4,3.5
		c-3.9,5.4,0.2,19.1-10.4,16c-2.8-2.8-4-6.5-4.8-10.4c-1.2-6.1-3.8-11.9-7.5-17c-1.6-2.3-2.7-4.8-1.9-6.5
		c5.8-14.6,15.6-6.6-13.8-15.4c-1.5-0.5-2.8-1.1-3.9-1.7c5.7-10.3,16-17.8,28.2-19.5c-0.1,1.3,0.3,2.6,1.5,3.8
		c3.5,2.2,5.1,8.6,0,8.6c-0.6,0-1.2-0.1-1.7-0.3c-2.3-0.6-5.3-2-7.4-0.7c-5.4,3.1-2.8,6,1.2,8.3c5.2,3,11.2,4.1,17.1,3.2
		c2.4-0.3,4.7-0.4,7.3,0.8c1.6,0.7,2.9,1.7,4.1,2.9C83.6,57.2,73.1,62,67.7,70.6z M88.5,45.8L82,36.6c-1.6-2.4-1.6-5.4,0-7.7
		c5.8,5.2,10,12,11.9,19.8C91.7,48.7,89.7,47.6,88.5,45.8z"/>
</g>
</svg>
